<svg width="172" height="172" viewBox="0 0 172 172" fill="none" xmlns="http://www.w3.org/2000/svg">
<path d="M32.8573 13.9058V88.3247H6.97363V25.0626C6.97363 18.9263 11.9942 13.9058 18.1305 13.9058H32.8573Z" fill="#9B5310"/>
<path d="M165.026 25.0626V88.325H139.143V13.9058H153.869C160.006 13.9058 165.026 18.9263 165.026 25.0626Z" fill="#9B5310"/>
<path d="M165.026 88.3252V172H153.87L142.713 80.8872L165.026 88.3252Z" fill="#9B5310"/>
<path d="M153.87 77.168V172H6.97363V88.3248L153.87 77.168Z" fill="#9B5310"/>
<path d="M136.169 13.9058L154.291 66.0114L125.032 77.1682V13.9058H136.169Z" fill="#FDA162"/>
<path d="M157.265 66.0112L165.026 88.3249H150.917L138.963 77.1681L143.155 66.0112H157.265Z" fill="#FDFA7B"/>
<path d="M125.032 13.9058H32.8575L14.7354 66.0113L86.0005 73.4493L143.156 66.0117L125.032 13.9058ZM112.033 51.1357H59.9683C53.8062 51.1357 48.8115 46.1413 48.8115 39.9789C48.8115 33.8164 53.8059 28.8221 59.9683 28.8221H112.033C118.195 28.8221 123.19 33.8164 123.19 39.9789C123.19 46.1413 118.195 51.1357 112.033 51.1357Z" fill="#9B5310"/>
<path d="M14.7351 66.0112L6.97363 88.3249H150.917L143.156 66.0112H14.7351Z" fill="#FEFDCA"/>
<path d="M26.5461 109.708C28.0866 109.708 29.3354 108.459 29.3354 106.919C29.3354 105.378 28.0866 104.129 26.5461 104.129C25.0056 104.129 23.7568 105.378 23.7568 106.919C23.7568 108.459 25.0056 109.708 26.5461 109.708Z" fill="#FDCE6E"/>
<path d="M37.7024 120.865C39.2429 120.865 40.4917 119.616 40.4917 118.075C40.4917 116.535 39.2429 115.286 37.7024 115.286C36.1619 115.286 34.9131 116.535 34.9131 118.075C34.9131 119.616 36.1619 120.865 37.7024 120.865Z" fill="#FDCE6E"/>
<path d="M145.454 156.194C146.995 156.194 148.244 154.945 148.244 153.405C148.244 151.865 146.995 150.616 145.454 150.616C143.914 150.616 142.665 151.865 142.665 153.405C142.665 154.945 143.914 156.194 145.454 156.194Z" fill="#FDCE6E"/>
<path d="M40.5943 0.156111C39.1407 -0.350147 37.5497 0.419486 37.0434 1.8741L6.97363 88.3249H12.8801L42.3126 3.70663C42.8185 2.25169 42.0492 0.662033 40.5943 0.156111Z" fill="#FDFA7B"/>
<path d="M134.957 1.87368C134.451 0.418395 132.861 -0.350566 131.406 0.155692C129.951 0.661614 129.182 2.25127 129.688 3.70622L159.12 88.3245H165.027L134.957 1.87368Z" fill="#FDCE6E"/>
</svg>
