<svg width="208" height="208" viewBox="0 0 208 208" fill="none" xmlns="http://www.w3.org/2000/svg">
<g clip-path="url(#clip0_2544_645)">
<path d="M102.288 48.3071C68.4862 48.3071 40.9893 75.8041 40.9893 109.609C40.9893 143.414 68.4862 170.911 102.288 170.911C136.103 170.911 163.61 143.414 163.61 109.609C163.61 75.8041 136.103 48.3071 102.288 48.3071Z" fill="#FCB23C"/>
<path d="M51.2188 119.835C51.2188 86.0336 78.7157 58.5332 112.517 58.5332C126.825 58.5332 139.973 63.4945 150.418 71.7361C139.179 57.4932 121.802 48.3037 102.288 48.3037C68.4862 48.3037 40.9893 75.8006 40.9893 109.606C40.9893 129.11 50.1754 146.476 64.4148 157.712C56.1801 147.274 51.2188 134.133 51.2188 119.835Z" fill="#FDC163"/>
<path d="M102.292 68.4629C79.603 68.4629 61.1455 86.9203 61.1455 109.609C61.1455 132.298 79.6064 150.756 102.292 150.756C124.981 150.756 143.438 132.295 143.438 109.609C143.438 86.9237 124.981 68.4629 102.292 68.4629Z" fill="#FDD18A"/>
<path d="M102.292 133.921C88.891 133.921 77.9932 123.013 77.9932 109.606C77.9932 107.723 79.5208 106.196 81.403 106.196C83.2852 106.196 84.8128 107.723 84.8128 109.606C84.8128 119.252 92.6555 127.102 102.292 127.102C111.938 127.102 119.788 119.252 119.788 109.606C119.788 107.723 121.312 106.196 123.197 106.196C125.083 106.196 126.607 107.723 126.607 109.606C126.607 123.017 115.699 133.921 102.292 133.921Z" fill="#FCB23C"/>
<path d="M30.6882 92.0654H10.2292C8.34694 92.0654 6.81934 93.593 6.81934 95.4753V167.082C6.81934 168.964 8.34694 170.492 10.2292 170.492H30.6882C32.5704 170.492 34.098 168.964 34.098 167.082V95.4753C34.098 93.593 32.5704 92.0654 30.6882 92.0654Z" fill="#E6E6E6"/>
<path d="M34.098 112.524H6.81934V129.574H34.098V112.524Z" fill="#F85766"/>
<path d="M6.81934 173.901C6.81934 179.541 11.409 184.131 17.0488 184.131H23.8685C29.5084 184.131 34.098 179.541 34.098 173.901V163.672H6.81934V173.901Z" fill="#F85766"/>
<path d="M37.5082 27.2788C35.626 27.2788 34.0984 28.8064 34.0984 30.6886V64.787H23.8689V30.6886C23.8689 28.8064 22.3412 27.2788 20.459 27.2788C18.5768 27.2788 17.0492 28.8064 17.0492 30.6886V64.787H6.81967V30.6886C6.81967 28.8064 5.29207 27.2788 3.40984 27.2788C1.52761 27.2788 0 28.8064 0 30.6886V68.1968V88.6559C0 94.2957 4.58964 98.8854 10.2295 98.8854H30.6885C36.3284 98.8854 40.918 94.2957 40.918 88.6559V68.1968V30.6886C40.918 28.8064 39.3904 27.2788 37.5082 27.2788Z" fill="#EBEBEB"/>
<path d="M194.361 88.6558H173.902C172.016 88.6558 170.492 90.1834 170.492 92.0656V167.082C170.492 168.964 172.016 170.492 173.902 170.492H194.361C196.247 170.492 197.771 168.964 197.771 167.082V92.0656C197.771 90.1834 196.247 88.6558 194.361 88.6558Z" fill="#E6E6E6"/>
<path d="M197.771 112.524H170.492V129.574H197.771V112.524Z" fill="#F85766"/>
<path d="M170.492 173.901C170.492 179.541 175.082 184.131 180.722 184.131H187.541C193.181 184.131 197.771 179.541 197.771 173.901V163.672H170.492V173.901Z" fill="#F85766"/>
<path d="M184.132 23.8687C170.748 23.8687 160.263 40.345 160.263 61.3769C160.263 82.4087 170.748 98.885 184.132 98.885C197.515 98.885 208 82.4087 208 61.3769C208 40.345 197.515 23.8687 184.132 23.8687Z" fill="#EBEBEB"/>
</g>
<defs>
<clipPath id="clip0_2544_645">
<rect width="208" height="208" fill="white"/>
</clipPath>
</defs>
</svg>
